<?xml version="1.0" encoding="UTF-8" standalone="no"?>
<svg xmlns:dc="http://purl.org/dc/elements/1.1/" xmlns:cc="http://creativecommons.org/ns#" xmlns:rdf="http://www.w3.org/1999/02/22-rdf-syntax-ns#" xmlns:svg="http://www.w3.org/2000/svg" xmlns="http://www.w3.org/2000/svg" xmlns:sodipodi="http://sodipodi.sourceforge.net/DTD/sodipodi-0.dtd" xmlns:inkscape="http://www.inkscape.org/namespaces/inkscape" width="300" height="85" xml:space="preserve" version="1.1" id="svg3017" inkscape:version="0.48.1 " sodipodi:docname="reebok logo22.svg"><defs id="defs3047">
  
  
  
  
  
  
  
  
  
  
  
 </defs><sodipodi:namedview pagecolor="#ffffff" bordercolor="#666666" borderopacity="1" objecttolerance="10" gridtolerance="10" guidetolerance="10" inkscape:pageopacity="0" inkscape:pageshadow="2" inkscape:window-width="1280" inkscape:window-height="657" id="namedview3045" showgrid="false" inkscape:zoom="2.4591681" inkscape:cx="200.73987" inkscape:cy="40.385126" inkscape:window-x="0" inkscape:window-y="0" inkscape:window-maximized="1" inkscape:current-layer="svg3017"/>
 <metadata id="metadata3019"><rdf:RDF><cc:Work rdf:about=""><dc:format>image/svg+xml</dc:format><dc:type rdf:resource="http://purl.org/dc/dcmitype/StillImage"/></cc:Work></rdf:RDF></metadata>

 <g id="g3069" transform="matrix(0.34561373,0,0,0.34561373,-12.564342,-70.509325)" style="fill:#e41d1b;fill-opacity:1"><g id="svg_1" transform="matrix(4.16667,0,0,4.16667,-181.171,-182.779)" style="fill:#e41d1b;fill-opacity:1">
   <path id="svg_2" d="m 181.2,118.3 c 23.6,-9.4 38.3,-14.8 77.3,-24.3 -21.2,1.4 -67.9,4.5 -100.1,10.9 -0.1,-0.1 22.3,13.1 22.8,13.4 z" class="st0" inkscape:connector-curvature="0" style="fill:#e41d1b;fill-opacity:1"/>
  </g><g id="svg_3" transform="matrix(4.16667,0,0,4.16667,-181.171,-182.779)" style="fill:#e41d1b;fill-opacity:1">
   <path id="svg_4" d="m 107.8,149.6 30.9,0 c 6,-9.2 12.3,-13.8 19.2,-18.8 -5.3,-2.1 -10.7,-4.1 -16.2,-6 -19.7,8.6 -30.7,20.2 -33.9,24.8 z" class="st0" inkscape:connector-curvature="0" style="fill:#e41d1b;fill-opacity:1"/>
  </g><g id="svg_5" transform="matrix(4.16667,0,0,4.16667,-181.171,-182.779)" style="fill:#e41d1b;fill-opacity:1">
   <path id="svg_6" d="m 113.9,115.9 c -27.5,9.8 -42.8,20.6 -53.1,33.7 l 34,0 c 3.3,-4.7 16,-18 39.8,-27.2 -6.7,-2.3 -18,-5.8 -20.7,-6.5 z" class="st0" inkscape:connector-curvature="0" style="fill:#e41d1b;fill-opacity:1"/>
  </g><g id="svg_7" transform="matrix(4.16667,0,0,4.16667,-181.171,-182.779)" style="fill:#e41d1b;fill-opacity:1">
   <path id="svg_8" d="m 128.1,95.1 -75.3,0 c 75.9,13.8 112.5,31.5 171.5,56.4 -5.2,-3.7 -86.4,-51.5 -96.2,-56.4 z" class="st1" inkscape:connector-curvature="0" style="fill:#e41d1b;fill-opacity:1"/>
  </g></g>
</svg>